<svg width="282" height="283" viewBox="0 0 282 283" xmlns="http://www.w3.org/2000/svg"><title>lbanne</title><defs><filter x="-50%" y="-50%" width="200%" height="200%" filterUnits="objectBoundingBox" id="a"><feOffset dy="2" in="SourceAlpha" result="shadowOffsetOuter1"/><feGaussianBlur stdDeviation="2" in="shadowOffsetOuter1" result="shadowBlurOuter1"/><feColorMatrix values="0 0 0 0 0 0 0 0 0 0 0 0 0 0 0 0 0 0 0.35 0" in="shadowBlurOuter1" result="shadowMatrixOuter1"/><feMerge><feMergeNode in="shadowMatrixOuter1"/><feMergeNode in="SourceGraphic"/></feMerge></filter><filter x="-50%" y="-50%" width="200%" height="200%" filterUnits="objectBoundingBox" id="b"><feOffset dy="2" in="SourceAlpha" result="shadowOffsetOuter1"/><feGaussianBlur stdDeviation="2" in="shadowOffsetOuter1" result="shadowBlurOuter1"/><feColorMatrix values="0 0 0 0 0 0 0 0 0 0 0 0 0 0 0 0 0 0 0.35 0" in="shadowBlurOuter1" result="shadowMatrixOuter1"/><feMerge><feMergeNode in="shadowMatrixOuter1"/><feMergeNode in="SourceGraphic"/></feMerge></filter></defs><g fill="#FFF" fill-rule="evenodd" fill-opacity=".903"><path d="M107.11 268.59c12.557 3.757 25.865 5.775 39.645 5.775 66.633 0 122.245-47.184 135.248-109.963-11.14 67.285-69.6 118.595-140.044 118.595-20.513 0-40.01-4.35-57.618-12.18 2.738-2.11 4.574-5.332 4.832-8.99 2.317 1.064 4.67 2.066 7.053 3.003-.2.584-.308 1.21-.308 1.86 0 3.18 2.576 5.756 5.754 5.756 2.513 0 4.65-1.61 5.435-3.856zm-42.8-8.693c-22.153-14.502-40.005-35.03-51.227-59.256 1.417-1.734 2.266-3.95 2.266-6.366 0-5.074-3.753-9.27-8.634-9.97-4.36-13.64-6.713-28.176-6.713-43.263C.003 70.598 51.313 12.14 118.598.998 55.818 14 8.635 69.612 8.635 136.245c0 47.67 24.15 89.7 60.883 114.522-2.913 2.072-4.898 5.364-5.208 9.13zM207.183 21.145c3.178 0 5.755-2.577 5.755-5.755s-2.577-5.755-5.755-5.755c-3.18 0-5.755 2.577-5.755 5.755s2.576 5.755 5.755 5.755zm11.99 2.877c1.323 0 2.397-1.073 2.397-2.397 0-1.325-1.074-2.398-2.398-2.398s-2.398 1.073-2.398 2.398c0 1.324 1.074 2.397 2.398 2.397z" filter="url(#a)"/><path d="M48.32 99V64.92h3.312v31.104H71.36V99H48.32zm84.416-34.08l11.184 18.336 11.232-18.336h3.648l-13.248 21.408V99h-3.312V86.232L129.088 64.92h3.648zm115.616 31.104V99h-22.896V64.92h22.464v2.976h-19.152v12.288h16.704v2.832h-16.704v13.008h19.584zM73.904 136.216c0 1.28-.256 2.456-.768 3.528s-1.2 2-2.064 2.784c-.864.784-1.872 1.392-3.024 1.824-1.152.432-2.384.648-3.696.648H48.32v-34.08h16.368c1.184 0 2.256.256 3.216.768.96.512 1.776 1.176 2.448 1.992.672.816 1.192 1.744 1.56 2.784.368 1.04.552 2.088.552 3.144 0 1.728-.432 3.304-1.296 4.728-.864 1.424-2.064 2.488-3.6 3.192 1.952.576 3.496 1.648 4.632 3.216 1.136 1.568 1.704 3.392 1.704 5.472zm-3.36-.576c0-.832-.144-1.64-.432-2.424-.288-.784-.696-1.472-1.224-2.064-.528-.592-1.152-1.072-1.872-1.44-.72-.368-1.496-.552-2.328-.552H51.632v12.912h12.72c.864 0 1.68-.176 2.448-.528.768-.352 1.424-.824 1.968-1.416s.976-1.28 1.296-2.064c.32-.784.48-1.592.48-2.424zm-18.912-21.792v12.576h11.712c.832 0 1.608-.176 2.328-.528.72-.352 1.344-.816 1.872-1.392s.936-1.24 1.224-1.992c.288-.752.432-1.544.432-2.376 0-.864-.136-1.68-.408-2.448-.272-.768-.656-1.432-1.152-1.992-.496-.56-1.088-1.008-1.776-1.344-.688-.336-1.432-.504-2.232-.504h-12zM92.384 145v-34.08h14.352c1.472 0 2.832.312 4.08.936 1.248.624 2.32 1.44 3.216 2.448.896 1.008 1.592 2.152 2.088 3.432.496 1.28.744 2.576.744 3.888 0 1.248-.184 2.44-.552 3.576-.368 1.136-.888 2.16-1.56 3.072-.672.912-1.472 1.68-2.4 2.304-.928.624-1.968 1.048-3.12 1.272l8.4 13.152h-3.792l-8.064-12.576h-10.08V145h-3.312zm3.312-15.552h11.184c.992 0 1.896-.216 2.712-.648.816-.432 1.512-1.016 2.088-1.752.576-.736 1.024-1.568 1.344-2.496.32-.928.48-1.904.48-2.928s-.184-2.008-.552-2.952c-.368-.944-.864-1.768-1.488-2.472s-1.36-1.264-2.208-1.68c-.848-.416-1.736-.624-2.664-.624H95.696v15.552zM132.08 145l14.256-34.08h2.736L163.328 145h-3.6l-4.416-10.656H140L135.632 145h-3.552zm15.648-30.144l-7.008 16.848h13.824l-6.816-16.848zM180.272 145v-34.08h14.352c1.472 0 2.832.312 4.08.936 1.248.624 2.32 1.44 3.216 2.448.896 1.008 1.592 2.152 2.088 3.432.496 1.28.744 2.576.744 3.888 0 1.248-.184 2.44-.552 3.576-.368 1.136-.888 2.16-1.56 3.072-.672.912-1.472 1.68-2.4 2.304-.928.624-1.968 1.048-3.12 1.272l8.4 13.152h-3.792l-8.064-12.576h-10.08V145h-3.312zm3.312-15.552h11.184c.992 0 1.896-.216 2.712-.648.816-.432 1.512-1.016 2.088-1.752.576-.736 1.024-1.568 1.344-2.496.32-.928.48-1.904.48-2.928s-.184-2.008-.552-2.952c-.368-.944-.864-1.768-1.488-2.472s-1.36-1.264-2.208-1.68c-.848-.416-1.736-.624-2.664-.624h-10.896v15.552zm38.784-18.528l11.184 18.336 11.232-18.336h3.648l-13.248 21.408V145h-3.312v-12.768L218.72 110.92h3.648zM44.148 208l20.72-52.54h8.288L93.802 208H82.998l-4.81-13.098H59.762L54.952 208H44.148zm24.864-41.514l-7.548 21.238h14.874l-7.326-21.238zm40.626 7.844V208H99.426v-52.54h7.918l27.38 34.484v-34.41h10.212V208h-8.288l-27.01-33.67zm56.462 0V208h-10.212v-52.54h7.918l27.38 34.484v-34.41h10.212V208h-8.288l-27.01-33.67zm82.732 24.716V208H212.35v-52.54h35.816v8.954h-25.604v12.654h22.126v8.288h-22.126v13.69h26.27z" filter="url(#b)"/></g></svg>