<?xml version="1.0" encoding="UTF-8" standalone="no"?>
<svg width="282px" height="283px" viewBox="0 0 282 283" version="1.1" xmlns="http://www.w3.org/2000/svg" xmlns:xlink="http://www.w3.org/1999/xlink" xmlns:sketch="http://www.bohemiancoding.com/sketch/ns">
    <!-- Generator: Sketch 3.3.3 (12081) - http://www.bohemiancoding.com/sketch -->
    <title>lbanne</title>
    <desc>Created with Sketch.</desc>
    <defs>
        <filter x="-50%" y="-50%" width="200%" height="200%" filterUnits="objectBoundingBox" id="filter-1">
            <feOffset dx="0" dy="2" in="SourceAlpha" result="shadowOffsetOuter1"></feOffset>
            <feGaussianBlur stdDeviation="2" in="shadowOffsetOuter1" result="shadowBlurOuter1"></feGaussianBlur>
            <feColorMatrix values="0 0 0 0 0   0 0 0 0 0   0 0 0 0 0  0 0 0 0.35 0" in="shadowBlurOuter1" type="matrix" result="shadowMatrixOuter1"></feColorMatrix>
            <feMerge>
                <feMergeNode in="shadowMatrixOuter1"></feMergeNode>
                <feMergeNode in="SourceGraphic"></feMergeNode>
            </feMerge>
        </filter>
        <filter x="-50%" y="-50%" width="200%" height="200%" filterUnits="objectBoundingBox" id="filter-2">
            <feOffset dx="0" dy="2" in="SourceAlpha" result="shadowOffsetOuter1"></feOffset>
            <feGaussianBlur stdDeviation="2" in="shadowOffsetOuter1" result="shadowBlurOuter1"></feGaussianBlur>
            <feColorMatrix values="0 0 0 0 0   0 0 0 0 0   0 0 0 0 0  0 0 0 0.35 0" in="shadowBlurOuter1" type="matrix" result="shadowMatrixOuter1"></feColorMatrix>
            <feMerge>
                <feMergeNode in="shadowMatrixOuter1"></feMergeNode>
                <feMergeNode in="SourceGraphic"></feMergeNode>
            </feMerge>
        </filter>
    </defs>
    <g id="Page-1" stroke="none" stroke-width="1" fill="none" fill-rule="evenodd" sketch:type="MSPage">
        <path d="M107.108692,268.590273 C119.66658,272.346805 132.975183,274.364768 146.755107,274.364768 C213.387812,274.364768 269.000109,227.180796 282.00274,164.402112 L282.00274,164.402112 C270.862047,231.687349 212.402698,282.99726 141.959278,282.99726 C121.446704,282.99726 101.950295,278.646544 84.3424967,270.817561 L84.3424967,270.817561 C87.0799055,268.707176 88.9158634,265.48468 89.1738721,261.826563 C91.4910764,262.890783 93.8428006,263.892755 96.2269032,264.830338 C96.0275114,265.414108 95.9193195,266.04014 95.9193195,266.691441 C95.9193195,269.869837 98.4959185,272.446436 101.674314,272.446436 C104.187356,272.446436 106.324185,270.835678 107.108692,268.590273 L107.108692,268.590273 Z M64.309564,259.896914 C42.1566506,245.394749 24.3047127,224.866361 13.0825392,200.640538 L13.0825474,200.640549 C14.4995129,198.905537 15.3493928,196.689231 15.3493928,194.274424 C15.3493928,189.200466 11.5971884,185.002883 6.71617679,184.305071 C2.35625752,170.664725 0.00274004478,156.127571 0.00274004478,141.040722 C0.00274004478,70.5973017 51.3126509,12.1379529 118.597888,0.997259955 C55.8192043,13.9998905 8.6352322,69.6121883 8.6352322,136.244893 C8.6352322,183.915322 32.7852652,225.945209 69.5182363,250.767458 C66.6051987,252.83881 64.6204173,256.130523 64.309564,259.896914 L64.309564,259.896914 Z M207.182552,21.144998 C210.360948,21.144998 212.937547,18.568399 212.937547,15.3900032 C212.937547,12.2116073 210.360948,9.63500842 207.182552,9.63500842 C204.004156,9.63500842 201.427557,12.2116073 201.427557,15.3900032 C201.427557,18.568399 204.004156,21.144998 207.182552,21.144998 Z M219.172124,24.0224953 C220.496456,24.0224953 221.570039,22.9489125 221.570039,21.6245809 C221.570039,20.3002493 220.496456,19.2266664 219.172124,19.2266664 C217.847793,19.2266664 216.77421,20.3002493 216.77421,21.6245809 C216.77421,22.9489125 217.847793,24.0224953 219.172124,24.0224953 Z" id="Oval-1" fill-opacity="0.903334466" fill="#FFFFFF" filter="url(#filter-1)" sketch:type="MSShapeGroup"></path>
        <path d="M48.32,99 L48.32,64.92 L51.632,64.92 L51.632,96.024 L71.36,96.024 L71.36,99 L48.32,99 Z M132.736,64.92 L143.92,83.256 L155.152,64.92 L158.8,64.92 L145.552,86.328 L145.552,99 L142.24,99 L142.24,86.232 L129.088,64.92 L132.736,64.92 Z M248.352,96.024 L248.352,99 L225.456,99 L225.456,64.92 L247.92,64.92 L247.92,67.896 L228.768,67.896 L228.768,80.184 L245.472,80.184 L245.472,83.016 L228.768,83.016 L228.768,96.024 L248.352,96.024 Z M73.904,136.216 C73.904,137.496006 73.6480026,138.671995 73.136,139.744 C72.6239974,140.816005 71.9360043,141.743996 71.072,142.528 C70.2079957,143.312004 69.2000058,143.919998 68.048,144.352 C66.8959942,144.784002 65.6640066,145 64.352,145 L48.32,145 L48.32,110.92 L64.688,110.92 C65.8720059,110.92 66.9439952,111.175997 67.904,111.688 C68.8640048,112.200003 69.6799966,112.863996 70.352,113.68 C71.0240034,114.496004 71.5439982,115.423995 71.912,116.464 C72.2800018,117.504005 72.464,118.551995 72.464,119.608 C72.464,121.336009 72.0320043,122.911993 71.168,124.336 C70.3039957,125.760007 69.1040077,126.823996 67.568,127.528 C69.5200098,128.104003 71.0639943,129.175992 72.2,130.744 C73.3360057,132.312008 73.904,134.13599 73.904,136.216 L73.904,136.216 Z M70.544,135.64 C70.544,134.807996 70.4000014,134.000004 70.112,133.216 C69.8239986,132.431996 69.4160026,131.744003 68.888,131.152 C68.3599974,130.559997 67.7360036,130.080002 67.016,129.712 C66.2959964,129.343998 65.5200042,129.16 64.688,129.16 L51.632,129.16 L51.632,142.072 L64.352,142.072 C65.2160043,142.072 66.0319962,141.896002 66.8,141.544 C67.5680038,141.191998 68.2239973,140.720003 68.768,140.128 C69.3120027,139.535997 69.7439984,138.848004 70.064,138.064 C70.3840016,137.279996 70.544,136.472004 70.544,135.64 L70.544,135.64 Z M51.632,113.848 L51.632,126.424 L63.344,126.424 C64.1760042,126.424 64.9519964,126.248002 65.672,125.896 C66.3920036,125.543998 67.0159974,125.080003 67.544,124.504 C68.0720026,123.927997 68.4799986,123.264004 68.768,122.512 C69.0560014,121.759996 69.2,120.968004 69.2,120.136 C69.2,119.271996 69.0640014,118.456004 68.792,117.688 C68.5199986,116.919996 68.1360025,116.256003 67.64,115.696 C67.1439975,115.135997 66.5520034,114.688002 65.864,114.352 C65.1759966,114.015998 64.432004,113.848 63.632,113.848 L51.632,113.848 Z M92.384,145 L92.384,110.92 L106.736,110.92 C108.208007,110.92 109.567994,111.231997 110.816,111.856 C112.064006,112.480003 113.135996,113.295995 114.032,114.304 C114.928004,115.312005 115.623998,116.455994 116.12,117.736 C116.616002,119.016006 116.864,120.311993 116.864,121.624 C116.864,122.872006 116.680002,124.063994 116.312,125.2 C115.943998,126.336006 115.424003,127.359995 114.752,128.272 C114.079997,129.184005 113.280005,129.951997 112.352,130.576 C111.423995,131.200003 110.384006,131.623999 109.232,131.848 L117.632,145 L113.84,145 L105.776,132.424 L95.696,132.424 L95.696,145 L92.384,145 Z M95.696,129.448 L106.88,129.448 C107.872005,129.448 108.775996,129.232002 109.592,128.8 C110.408004,128.367998 111.103997,127.784004 111.68,127.048 C112.256003,126.311996 112.703998,125.480005 113.024,124.552 C113.344002,123.623995 113.504,122.648005 113.504,121.624 C113.504,120.599995 113.320002,119.616005 112.952,118.672 C112.583998,117.727995 112.088003,116.904004 111.464,116.2 C110.839997,115.495996 110.104004,114.936002 109.256,114.52 C108.407996,114.103998 107.520005,113.896 106.592,113.896 L95.696,113.896 L95.696,129.448 Z M132.08,145 L146.336,110.92 L149.072,110.92 L163.328,145 L159.728,145 L155.312,134.344 L140,134.344 L135.632,145 L132.08,145 Z M147.728,114.856 L140.72,131.704 L154.544,131.704 L147.728,114.856 Z M180.272,145 L180.272,110.92 L194.624,110.92 C196.096007,110.92 197.455994,111.231997 198.704,111.856 C199.952006,112.480003 201.023996,113.295995 201.92,114.304 C202.816004,115.312005 203.511998,116.455994 204.008,117.736 C204.504002,119.016006 204.752,120.311993 204.752,121.624 C204.752,122.872006 204.568002,124.063994 204.2,125.2 C203.831998,126.336006 203.312003,127.359995 202.64,128.272 C201.967997,129.184005 201.168005,129.951997 200.24,130.576 C199.311995,131.200003 198.272006,131.623999 197.12,131.848 L205.52,145 L201.728,145 L193.664,132.424 L183.584,132.424 L183.584,145 L180.272,145 Z M183.584,129.448 L194.768,129.448 C195.760005,129.448 196.663996,129.232002 197.48,128.8 C198.296004,128.367998 198.991997,127.784004 199.568,127.048 C200.144003,126.311996 200.591998,125.480005 200.912,124.552 C201.232002,123.623995 201.392,122.648005 201.392,121.624 C201.392,120.599995 201.208002,119.616005 200.84,118.672 C200.471998,117.727995 199.976003,116.904004 199.352,116.2 C198.727997,115.495996 197.992004,114.936002 197.144,114.52 C196.295996,114.103998 195.408005,113.896 194.48,113.896 L183.584,113.896 L183.584,129.448 Z M222.368,110.92 L233.552,129.256 L244.784,110.92 L248.432,110.92 L235.184,132.328 L235.184,145 L231.872,145 L231.872,132.232 L218.72,110.92 L222.368,110.92 Z M44.148,208 L64.868,155.46 L73.156,155.46 L93.802,208 L82.998,208 L78.188,194.902 L59.762,194.902 L54.952,208 L44.148,208 Z M69.012,166.486 L61.464,187.724 L76.338,187.724 L69.012,166.486 Z M109.638,174.33 L109.638,208 L99.426,208 L99.426,155.46 L107.344,155.46 L134.724,189.944 L134.724,155.534 L144.936,155.534 L144.936,208 L136.648,208 L109.638,174.33 Z M166.1,174.33 L166.1,208 L155.888,208 L155.888,155.46 L163.806,155.46 L191.186,189.944 L191.186,155.534 L201.398,155.534 L201.398,208 L193.11,208 L166.1,174.33 Z M248.832,199.046 L248.832,208 L212.35,208 L212.35,155.46 L248.166,155.46 L248.166,164.414 L222.562,164.414 L222.562,177.068 L244.688,177.068 L244.688,185.356 L222.562,185.356 L222.562,199.046 L248.832,199.046 Z" id="LYE" fill-opacity="0.902541893" fill="#FFFFFF" filter="url(#filter-2)" sketch:type="MSShapeGroup"></path>
    </g>
</svg>